<svg xmlns="http://www.w3.org/2000/svg" fill="none" viewBox="0 0 91 77">
  <path stroke="#626262" d="M90.25 29.33c0 .37-.2.8-.75 1.3a10 10 0 0 1-2.51 1.46c-2.25.96-5.53 1.84-9.62 2.58-8.17 1.5-19.49 2.41-32 2.41-12.5 0-23.82-.92-31.99-2.4-4.1-.75-7.37-1.63-9.62-2.6a9.49 9.49 0 0 1-2.5-1.46C.7 30.13.5 29.7.5 29.33s.2-.8.75-1.29a9.49 9.49 0 0 1 2.51-1.46c2.25-.96 5.53-1.84 9.62-2.59 8.17-1.48 19.49-2.4 32-2.4 12.5 0 23.82.92 32 2.4 4.08.75 7.36 1.63 9.6 2.6 1.13.47 1.97.97 2.52 1.45.55.5.75.92.75 1.3Zm0-21.08c0 .37-.2.8-.75 1.29s-1.39.98-2.51 1.46c-2.25.97-5.53 1.85-9.62 2.6-8.17 1.48-19.49 2.4-32 2.4-12.5 0-23.82-.92-31.99-2.4-4.1-.75-7.37-1.63-9.62-2.6a9.48 9.48 0 0 1-2.5-1.46C.7 9.05.5 8.62.5 8.25s.2-.8.75-1.29A9.49 9.49 0 0 1 3.76 5.5c2.25-.97 5.53-1.85 9.62-2.6 8.17-1.48 19.49-2.4 32-2.4 12.5 0 23.82.92 32 2.4 4.08.75 7.36 1.63 9.6 2.6 1.13.48 1.97.97 2.52 1.46s.75.92.75 1.29Zm0 40.33c0 .37-.2.8-.75 1.3a10 10 0 0 1-2.51 1.46c-2.25.96-5.53 1.84-9.62 2.58-8.17 1.5-19.49 2.41-32 2.41-12.5 0-23.82-.92-31.99-2.4-4.1-.75-7.37-1.63-9.62-2.6a9.49 9.49 0 0 1-2.5-1.46C.7 49.38.5 48.95.5 48.58s.2-.8.75-1.29a9.49 9.49 0 0 1 2.51-1.46c2.25-.96 5.53-1.84 9.62-2.59 8.17-1.48 19.49-2.4 32-2.4 12.5 0 23.82.92 32 2.4 4.08.75 7.36 1.63 9.6 2.6 1.13.47 1.97.97 2.52 1.45.55.5.75.92.75 1.3Z"/>
  <path stroke="#626262" d="M90.25 60.5c0 .37-.2.8-.75 1.29s-1.39.98-2.51 1.46c-2.25.97-5.53 1.85-9.62 2.6-8.17 1.48-19.49 2.4-32 2.4-12.5 0-23.82-.92-31.99-2.4-4.1-.75-7.37-1.63-9.62-2.6a9.49 9.49 0 0 1-2.5-1.46C.7 61.3.5 60.87.5 60.5s.2-.8.75-1.29a9.49 9.49 0 0 1 2.51-1.46c2.25-.97 5.53-1.85 9.62-2.6 8.17-1.48 19.49-2.4 32-2.4 12.5 0 23.82.92 32 2.4 4.08.75 7.36 1.63 9.6 2.6 1.13.48 1.97.97 2.52 1.46s.75.92.75 1.29Z"/>
  <path stroke="#626262" d="M90.25 68.75c0 .37-.2.8-.75 1.29s-1.39.98-2.51 1.46c-2.25.97-5.53 1.85-9.62 2.6-8.17 1.48-19.49 2.4-32 2.4-12.5 0-23.82-.92-31.99-2.4-4.1-.75-7.37-1.63-9.62-2.6a9.49 9.49 0 0 1-2.5-1.46C.7 69.55.5 69.12.5 68.75s.2-.8.75-1.29A9.49 9.49 0 0 1 3.76 66c2.25-.97 5.53-1.85 9.62-2.6 8.17-1.48 19.49-2.4 32-2.4 12.5 0 23.82.92 32 2.4 4.08.75 7.36 1.63 9.6 2.6 1.13.48 1.97.97 2.52 1.46s.75.92.75 1.29Z"/>
</svg>
