<svg xmlns="http://www.w3.org/2000/svg" fill="none" viewBox="0 0 80 86">
  <path stroke="#626262" stroke-miterlimit="22.9256" d="M1 7.0157h13.5237C14.5237 3.6933 17.217 1 20.5395 1c3.3224 0 6.0157 2.6933 6.0157 6.0157H40.079v13.5238c3.3224 0 6.0157 2.6933 6.0157 6.0157 0 3.3225-2.6933 6.0158-6.0157 6.0158v13.5237H26.5552c0-3.3224-2.6933-6.0157-6.0157-6.0157-3.3225 0-6.0158 2.6933-6.0158 6.0157H1V7.0157Z" clip-rule="evenodd"/>
  <path stroke="#626262" stroke-miterlimit="22.9256" d="M39.9053 7.1895h38.9052v39.0789H65.3468c0 3.3225-2.6814 6.0158-5.9891 6.0158-3.3077 0-5.9891-2.6933-5.9891-6.0158H39.9053V32.745c3.3077 0 5.989-2.6934 5.989-6.0159 0-3.3224-2.6813-6.0158-5.989-6.0158V7.1895Z" clip-rule="evenodd"/>
  <path stroke="#626262" stroke-miterlimit="22.9256" d="M1 45.921h13.5237c0-3.3224 2.6933-6.0157 6.0158-6.0157 3.3224 0 6.0157 2.6933 6.0157 6.0157H40.079v13.5238c3.3224 0 6.0157 2.6933 6.0157 6.0157s-2.6933 6.0158-6.0157 6.0158V85H1V45.921Z" clip-rule="evenodd"/>
  <path stroke="#626262" stroke-miterlimit="22.9256" d="M39.9053 46.0947h13.4636c0 3.3078 2.6813 5.9891 5.989 5.9891s5.989-2.6813 5.989-5.9891h13.4636V85H39.9053V71.5362c3.3077 0 5.989-2.6813 5.989-5.989s-2.6813-5.9891-5.989-5.9891V46.0947Z" clip-rule="evenodd"/>
</svg>
