<svg xmlns="http://www.w3.org/2000/svg" fill="none" viewBox="0 0 780 435">
  <path stroke="#D3D3D3" stroke-miterlimit="22.9" stroke-width="2" d="m247.6 86.3 70.7-41 83.1 48.2-70.7 41-83.1-48.2Zm303.1 56.6 83-48.2L717 143l-83.2 48-83.1-48Zm62 182.1 83.1-48 83.2 48-83.2 48.2-83-48.1Zm-269.3-39.8 152.3-88.4L632.6 276l-152.3 88.5-137-79.3ZM170.3 386.3l83-48.2 83.2 48.2-83.1 48.1-83.1-48.1ZM1 65.8l83.2-48.2 83 48.2-83 48.1L1 65.8Z" clip-rule="evenodd"/>
  <path fill="#D3D3D3" fill-rule="evenodd" d="M583.7 162a12 12 0 0 1 10.5 0c2.8 1.7 2.8 4.4 0 6.1a11.5 11.5 0 0 1-10.5 0c-2.9-1.7-2.9-4.4 0-6Z" clip-rule="evenodd"/>
  <path stroke="#D3D3D3" stroke-miterlimit="22.9" stroke-width="2" d="m87.5 235.1 182.2-105.7 136.9 79.3-182.2 105.7L87.5 235ZM381.2 53.5l91.3-53L580 62.9l-91.3 52.8-107.4-62.1Z" clip-rule="evenodd"/>
  <path stroke="#D3D3D3" stroke-miterlimit="22.9" stroke-width="2" d="m411.1 324.4-58 33.6-101.5-59.2M126 89.8l105.4 61m99.9 13.6 88.3-51.5L550 187.5l38.8-22.4"/>
  <path fill="#D3D3D3" fill-rule="evenodd" d="M406 321.4c2.8-1.7 7.5-1.7 10.4 0 2.8 1.7 2.8 4.4 0 6a11.5 11.5 0 0 1-10.5 0c-2.9-1.6-2.9-4.3 0-6Zm-159.6-25.6c2.9-1.6 7.5-1.6 10.4 0 3 1.7 3 4.4 0 6a11.5 11.5 0 0 1-10.4 0c-2.9-1.6-2.9-4.3 0-6ZM122 86c2.9-1.7 7.5-1.7 10.4 0 2.9 1.6 2.9 4.3 0 6a11.5 11.5 0 0 1-10.4 0c-2.9-1.7-2.9-4.4 0-6Z" clip-rule="evenodd"/>
</svg>
