<svg xmlns="http://www.w3.org/2000/svg" fill="none" viewBox="0 0 594 390">
  <path stroke="#5E5E5E" stroke-miterlimit="22.9" d="m1.4 312.2 76.4-44 61.5 35.6 70.9 41-76.4 44L1.4 312.2Z" clip-rule="evenodd"/>
  <path fill="#EDEEEE" fill-rule="evenodd" stroke="#5E5E5E" stroke-miterlimit="22.9" d="m139 375.9 49-28.4c1.5-.9 2.3-2.2 2.2-3.5v-7l-2.7 3.1-.6-.3-100-57.6a15 15 0 0 0-13.5-.5L25 309.6l-3-3.3v6.9c0 1.6 1 3.2 3.3 4.5l100.1 57.6c4 2.3 10 2.5 13.5.6Z" clip-rule="evenodd"/>
  <path fill="#EDEEEE" fill-rule="evenodd" stroke="#5E5E5E" stroke-miterlimit="22.9" d="m165.4 358.5-2.8 1.6c-.4.2-.7 0-.7-.5s.3-1 .7-1.3l2.8-1.6c.4-.2.7 0 .7.5s-.3 1-.7 1.3Zm-141-55.7 49-28.3c3.4-2 9.4-1.7 13.4.6l100.1 57.5c4 2.3 4.4 5.8 1 7.8l-49 28.3c-3.4 2-9.4 1.8-13.4-.5L25.4 310.6c-4-2.3-4.4-5.8-1-7.8Z" clip-rule="evenodd"/>
  <path fill="#BB0C42" fill-rule="evenodd" stroke="#5E5E5E" stroke-miterlimit="22.9" stroke-width=".2" d="m28.2 304 47-27.3c2.6-1.4 7-1.3 10 .4l98.7 56.8c3 1.7 3.3 4.3.7 5.8l-47 27.2c-2.6 1.5-7 1.3-10-.4L29 309.7c-3-1.7-3.3-4.3-.7-5.7Z" clip-rule="evenodd"/>
  <path fill="#EDEEEE" fill-rule="evenodd" d="m125.8 352.8 33.1-19.2-2-1.2-33.3 19.1 2.2 1.3Zm23-5.6 16.9-9.7-2.2-1.2-16.8 9.6 2.1 1.3Zm-8.1 4.7 5.4-3.2-2-1.2-5.5 3.2 2 1.2Zm-8.2 4.7 5.4-3.1-2.1-1.2-5.5 3.1 2.2 1.2Zm16.2-13.2 13.6-7.9-2.1-1.2-13.7 7.9 2.2 1.2ZM132 353l13.7-7.9-2.2-1.2-13.6 7.9 2.1 1.2Zm10.1-16.8c.7.4 1.8.4 2.5 0s.7-1 0-1.4c-.7-.4-1.8-.4-2.5 0s-.7 1 0 1.4Zm-3.7 2.1c.7.4 1.8.4 2.5 0s.7-1 0-1.4c-.7-.4-1.8-.4-2.5 0s-.7 1 0 1.4Zm-3.7 2.2c.7.3 1.8.3 2.5 0 .7-.4.7-1 0-1.5-.7-.4-1.8-.4-2.5 0s-.7 1 0 1.5Zm-3.7 2.1c.7.4 1.8.4 2.5 0s.7-1 0-1.4c-.7-.4-1.8-.4-2.5 0s-.7 1 0 1.4Zm-3.7 2.1c.7.4 1.8.4 2.5 0s.7-1 0-1.4c-.7-.4-1.8-.4-2.5 0-.6.4-.6 1 0 1.4Zm-74.2-40.5 5.6-3.3-2.2-1.2-5.6 3.2 2.2 1.3Zm-7.8 4.5 5.6-3.3-2.2-1.2-5.5 3.2 2.1 1.3ZM78 289.6l5.7-3.2-2.2-1.2-5.6 3.2 2.2 1.2Zm-23.6 17.8L62 303l-2.1-1.2-7.8 4.5 2.2 1.2Zm-5.6 3.2 3.4-2-2.2-1.2-3.4 2 2.2 1.2Z" clip-rule="evenodd"/>
  <path fill="#5E5E5E" fill-rule="evenodd" d="M162.8 218.1c-.9.5-2.3.5-3.1 0-1-.5-1-1.3 0-1.8.8-.5 2.2-.5 3.1 0 .9.5.9 1.3 0 1.8Z" clip-rule="evenodd"/>
  <path fill="url(#a)" fill-rule="evenodd" d="m73.2 322.9 29.8-17.2-3.8-2.2-29.8 17.2 3.8 2.2Z" clip-rule="evenodd"/>
  <path fill="url(#b)" fill-rule="evenodd" d="m77 325 35-20.3-3.7-2.1-35.1 20.3 3.7 2.1Z" clip-rule="evenodd"/>
  <path fill="#5E5E5E" fill-rule="evenodd" d="M212.2 295.5c-.6.4-1.7.4-2.4 0-.6-.4-.6-1 0-1.4.7-.4 1.8-.4 2.4 0 .7.4.7 1 0 1.4Z" clip-rule="evenodd"/>
  <path stroke="#5E5E5E" stroke-miterlimit="22.9" d="m17.8 183.7 131.6-76.2 101 58.2-131.7 76.1-101-58Z" clip-rule="evenodd"/>
  <path fill="#EDEEEE" fill-rule="evenodd" stroke="#5E5E5E" stroke-miterlimit="22.9" d="M28 84.3 120.4 31c1-.6 2.1-.7 3-.4h.2v.1L127 32l-3 1.4v.2l11.2 50.7 5.1 23.3c.8 3.4-.7 7.4-3.3 9l-90 51.8.4 3.8-3.7-1.4c-1.2-.5-2.2-1.8-2.6-3.7l-16.3-74c-.6-2.8.3-6 2.2-8l.1-.1.1-.1h.1v-.1h.1v-.1h.1l.1-.1h.1v-.1h.1v-.1h.1l.2-.1v-.1Z" clip-rule="evenodd"/>
  <path fill="#EDEEEE" fill-rule="evenodd" stroke="#5E5E5E" stroke-miterlimit="22.9" d="m50.5 172 92.1-53.2c2.6-1.5 4.1-5.5 3.4-9l-16.3-74c-.7-3.4-3.5-5-6-3.4L31.4 85.6C28.8 87 27.3 91 28 94.5l16.3 74c.7 3.4 3.4 5 6 3.5Z" clip-rule="evenodd"/>
  <path fill="#fff" fill-rule="evenodd" d="m52.5 166.9 86.6-50c2.4-1.4 3.8-5 3.1-8.2l-15-68.2c-.7-3.1-3.2-4.5-5.6-3.1L35 87.4c-2.4 1.3-3.8 5-3.1 8.1l15 68.2c.7 3.2 3.2 4.6 5.6 3.2Z" clip-rule="evenodd"/>
  <path fill="#BB0C42" fill-rule="evenodd" stroke="#5E5E5E" stroke-miterlimit="22.9" stroke-width=".2" d="m52.5 166.9 86.6-50c2.4-1.4 3.8-5 3.1-8.2l-15-68.2c-.7-3.1-3.2-4.5-5.6-3.1L35 87.4c-2.4 1.3-3.8 5-3.1 8.1l15 68.2c.7 3.2 3.2 4.6 5.6 3.2Z" clip-rule="evenodd"/>
  <path fill="#EDEEEE" fill-rule="evenodd" stroke="#5E5E5E" stroke-miterlimit="22.9" d="m49.2 174.3 12.6-1.7 53.5-30.8.8-.5 27-15.6c2.6-1.5 7.2-1.3 10.2.4l57.6 33.3 7.6-1v4.3c0 1-.5 2-1.7 2.6l-92.2 53.2-.1.1h-.1l-.1.1h-.2v.1h-.1l-.2.1a12 12 0 0 1-9.4-.8L51.7 182c-1.7-1-2.6-2.2-2.5-3.4v-4.2Z" clip-rule="evenodd"/>
  <path fill="#EDEEEE" fill-rule="evenodd" stroke="#5E5E5E" stroke-miterlimit="22.9" d="m124.6 214.2 92.2-53.2c2.6-1.5 2.3-4.1-.8-5.8L153.3 119c-3-1.8-7.6-2-10.2-.5L51 171.7c-2.6 1.5-2.2 4.2.8 5.9l62.7 36.2c3 1.7 7.6 2 10.2.4Z" clip-rule="evenodd"/>
  <path fill="#D4D4D4" fill-rule="evenodd" d="m177.6 143.4 4.1-2.4c.4-.2.3-.5 0-.7l-5-2.9c-.4-.2-1-.2-1.3 0l-4.1 2.4c-.4.2-.3.5 0 .7l5 2.9c.4.2 1 .2 1.3 0Zm-6.5 3.7 4.2-2.4c.3-.2.3-.5 0-.7l-5-2.9c-.4-.2-1-.2-1.3 0l-4.2 2.4c-.3.2-.3.5.1.8l5 2.8c.3.2.9.2 1.2 0Zm-6.4 3.8 4.2-2.4c.3-.2.3-.6-.1-.8l-5-2.8c-.3-.3-1-.3-1.3 0l-4.1 2.3c-.4.2-.3.5 0 .8l5 2.8c.4.2 1 .3 1.3 0Zm-8.9-3.1 4.2-2.4c.3-.2.3-.5-.1-.8l-4.2-2.4c-.4-.2-1-.2-1.3 0l-4.1 2.4c-.4.2-.3.5 0 .8l4.2 2.3c.4.3 1 .3 1.3 0Zm-6.5 3.7 4.2-2.4c.4-.2.3-.5 0-.8l-4.2-2.3c-.4-.3-1-.3-1.3 0l-4.2 2.3c-.3.2-.3.5.1.8l4.1 2.4c.4.2 1 .2 1.3 0Zm-6.3 3.7 4-2.4c.4-.2.4-.5 0-.7l-4.1-2.4c-.4-.2-1-.3-1.4 0l-4.1 2.3c-.4.2-.3.6 0 .8l4.2 2.4c.4.2 1 .2 1.3 0Zm-6.5 3.8 4.1-2.5c.4-.2.3-.5 0-.7l-4.2-2.4c-.4-.2-1-.3-1.3 0l-4.2 2.3c-.3.2-.3.6.1.8l4.2 2.4c.3.2 1 .2 1.3 0Zm-6.5 3.7 4.2-2.5c.3-.1.3-.5-.1-.7L130 157c-.4-.2-1-.2-1.3 0l-4.2 2.4c-.3.2-.3.5 0 .7l4.2 2.4c.4.2 1 .2 1.3 0Zm-6.4 3.7 4.2-2.4c.3-.2.2-.6-.1-.8l-4.2-2.4c-.4-.2-1-.2-1.3 0l-4.1 2.4c-.4.2-.3.5 0 .7l4.2 2.4c.4.2 1 .3 1.3 0Zm-6.5 3.6 4.2-2.3c.4-.2.3-.6 0-.8l-4.2-2.4c-.4-.2-1-.2-1.3 0l-4.2 2.4c-.3.2-.3.5.1.8l4.1 2.3c.4.3 1 .3 1.3 0Zm-6.4 3.8 4.2-2.4c.3-.2.3-.5-.1-.8l-4.1-2.3c-.4-.3-1-.3-1.4 0l-4.1 2.3c-.4.2-.3.5 0 .8l4.2 2.4c.4.2 1 .2 1.3 0Zm-6.4 3.7 4.1-2.4c.4-.2.3-.5 0-.7l-4.2-2.4c-.4-.3-1-.3-1.3 0l-4.2 2.3c-.3.2-.3.6.1.8l4.2 2.4c.3.2 1 .2 1.3 0Zm-6.5 3.7 4.2-2.4c.3-.2.3-.5-.1-.7l-4.1-2.4c-.4-.2-1-.3-1.3 0l-4.2 2.3c-.3.2-.3.6 0 .8l4.2 2.4c.4.2 1 .2 1.3 0Zm48.5-35.2 4.2-2.4c.3-.2.3-.5-.1-.7l-4.2-2.4c-.3-.2-1-.3-1.3 0l-4.1 2.3c-.4.2-.3.6 0 .8l4.2 2.4c.4.2 1 .2 1.3 0Zm6.5-3.7 4.2-2.4c.3-.2.3-.6 0-.8l-4.2-2.4c-.4-.2-1-.2-1.3 0l-4.2 2.4c-.3.2-.3.5.1.7l4.1 2.4c.4.2 1 .3 1.3 0Zm6.6-3.8 9-5.2c.3-.2.3-.5-.1-.8l-4.2-2.3c-.3-.3-1-.3-1.3 0l-9 5c-.3.3-.2.6.1.8l4.2 2.4c.4.3 1 .3 1.3 0Zm-4.6-4.6 7.3-4.2c.3-.2.3-.5-.1-.8l-4.1-2.4c-.4-.2-1-.2-1.3 0l-7.3 4.2c-.4.2-.3.5 0 .8l4.2 2.3c.4.3 1 .3 1.3 0Zm-14.9 15.8 4.1-2.4c.4-.2.3-.5 0-.7l-4.2-2.4c-.4-.2-1-.2-1.3 0l-4.2 2.4c-.3.2-.3.5.1.7l4.2 2.4c.3.2 1 .2 1.3 0Zm-6.5 3.8 4.2-2.4c.3-.2.3-.6-.1-.8l-4.1-2.4c-.4-.2-1-.2-1.3 0l-4.2 2.4c-.3.2-.3.5 0 .7l4.2 2.4c.4.2 1 .3 1.3 0Zm-6.4 3.7 4.1-2.4c.4-.2.3-.6 0-.8l-4.2-2.4c-.4-.2-1-.2-1.3 0l-4.2 2.4c-.3.2-.2.5.1.7l4.2 2.4c.4.2 1 .3 1.3 0Zm-6.5 3.7 4.2-2.4c.3-.2.3-.5 0-.8l-4.2-2.3c-.4-.3-1-.3-1.3-.1l-4.2 2.4c-.3.2-.3.5.1.8l4.1 2.3c.4.3 1 .3 1.3.1Zm-6.4 3.7 4.2-2.4c.3-.2.3-.5-.1-.8l-4.2-2.3c-.3-.3-1-.3-1.3 0l-4.1 2.3c-.4.2-.3.5 0 .8l4.2 2.4c.4.2 1 .2 1.3 0Zm-6.4 3.7 4.1-2.4c.4-.2.3-.5 0-.7l-4.2-2.4c-.4-.2-1-.3-1.3 0L102 165c-.3.2-.3.6.1.8l4.1 2.4c.4.2 1 .2 1.4 0Zm-6.5 3.7 4.2-2.4c.3-.2.3-.5-.1-.7l-4.1-2.4c-.4-.2-1-.2-1.3 0l-4.2 2.4c-.4.1-.3.5 0 .7l4.2 2.4c.4.2 1 .2 1.3 0Z" clip-rule="evenodd"/>
  <path fill="#D5D5D5" fill-rule="evenodd" d="m94.8 175.8 4.1-2.4c.4-.2.3-.6 0-.8l-4.2-2.4c-.4-.2-1-.2-1.3 0l-4.2 2.4c-.3.2-.2.5.1.7l4.2 2.4c.4.2 1 .3 1.3 0Zm-6.5 3.7 4.2-2.4c.3-.2.3-.6 0-.8l-4.2-2.4c-.4-.2-1-.2-1.3 0l-4.2 2.4c-.3.2-.3.5.1.7l4.1 2.4c.4.2 1 .3 1.3 0ZM76.9 186l9-5.2c.4-.2.4-.5 0-.7l-4.1-2.4c-.4-.2-1-.3-1.3 0l-9.1 5.2c-.4.2-.3.5 0 .7l4.2 2.4c.4.3 1 .3 1.3 0Zm-12.6-7.2 7.7-4.4c.4-.2.3-.5 0-.7l-4.2-2.4c-.4-.2-1-.3-1.3 0l-7.7 4.4c-.3.1-.3.5.1.7l4.1 2.4c.4.2 1 .2 1.3 0Z" clip-rule="evenodd"/>
  <path fill="#D4D4D4" fill-rule="evenodd" d="m128.6 149 4.1-2.4c.4-.2.3-.5 0-.7l-4.2-2.4c-.4-.2-1-.3-1.3 0l-4.2 2.3c-.3.2-.2.6.1.8l4.2 2.4c.4.2 1 .2 1.3 0Zm6.6-3.8 4.2-2.4c.3-.2.2-.5-.1-.7l-4.2-2.4c-.4-.3-1-.3-1.3 0l-4.2 2.3c-.3.2-.2.6.1.8l4.2 2.4c.4.2 1 .2 1.3 0Zm6.6-3.8 4.1-2.4c.4-.2.3-.5 0-.8l-4.2-2.3c-.4-.3-1-.3-1.3 0l-4.2 2.3c-.3.2-.2.5.1.8l4.2 2.3c.4.3 1 .3 1.3.1Zm6.6-3.8 4.2-2.4c.3-.2.2-.5-.1-.8l-4.2-2.3c-.4-.3-1-.3-1.3-.1l-4.2 2.4c-.3.2-.2.5.1.8l4.2 2.3c.4.3 1 .3 1.3 0Zm-26.3 15.1 4.2-2.4c.3-.2.3-.5 0-.7l-4.2-2.4c-.4-.2-1-.3-1.3 0l-4.2 2.3c-.3.2-.3.6.1.8l4.1 2.4c.4.2 1 .2 1.3 0Zm-6.4 3.8 4.2-2.5c.3-.1.3-.5-.1-.7l-4.2-2.4c-.3-.2-1-.2-1.3 0l-4.1 2.4c-.4.2-.3.5 0 .7l4.2 2.4c.4.2 1 .2 1.3 0Zm-6.4 3.7 4.1-2.4c.4-.2.3-.6 0-.8l-4.2-2.4c-.4-.2-1-.2-1.3 0l-4.2 2.4c-.3.2-.3.5.1.7l4.2 2.4c.3.2 1 .3 1.3 0Zm-6.5 3.7 4.2-2.4c.3-.2.3-.6-.1-.8l-4.1-2.4c-.4-.2-1-.2-1.3 0l-4.2 2.4c-.4.2-.3.5 0 .7l4.2 2.4c.4.3 1 .3 1.3 0Zm-6.4 3.7 4.1-2.4c.4-.2.3-.5 0-.8l-4.2-2.3c-.4-.3-1-.3-1.3-.1l-4.2 2.4c-.3.2-.2.5.1.8l4.2 2.3c.4.3 1 .3 1.3.1Z" clip-rule="evenodd"/>
  <path fill="#D5D5D5" fill-rule="evenodd" d="m90 171.3 4-2.3c.3-.2.3-.5 0-.7l-4.2-2.4c-.4-.3-1-.3-1.3 0l-4.2 2.3c-.3.2-.3.6.1.8l4.1 2.4c.4.2 1 .2 1.3 0Zm-6.5 3.7 4.2-2.4c.3-.2.3-.5-.1-.7l-4.2-2.4c-.3-.2-1-.3-1.3 0l-4.1 2.3c-.4.2-.3.6 0 .8l4.2 2.4c.4.2 1 .2 1.3 0Zm-6.5 3.7 4.2-2.4c.4-.2.3-.5 0-.7l-4.2-2.4c-.4-.2-1-.2-1.3 0l-4.2 2.4c-.3.2-.3.5.1.7l4.2 2.4c.3.2 1 .2 1.3 0Zm-6.4 3.8 4.2-2.4c.3-.2.3-.6-.1-.8l-4.1-2.4c-.4-.2-1-.2-1.3 0l-4.2 2.4c-.3.2-.3.5 0 .7l4.2 2.4c.4.2 1 .3 1.3 0Z" clip-rule="evenodd"/>
  <path fill="#D4D4D4" fill-rule="evenodd" d="m132 139.8 4.1-2.4c.4-.2.3-.5 0-.7l-4.2-2.4c-.4-.2-1-.3-1.3 0l-4.2 2.3c-.3.2-.3.6.1.8l4.2 2.4c.4.2 1 .2 1.3 0Zm6.4-3.7 4.1-2.4c.4-.2.3-.5 0-.7l-4.2-2.4c-.4-.2-1-.3-1.3 0l-4.2 2.3c-.3.2-.2.6.1.8l4.2 2.4c.4.2 1 .2 1.3 0Zm6.4-3.7 4.2-2.4c.3-.2.3-.5-.1-.7l-4.2-2.4c-.4-.2-1-.3-1.3 0l-4.1 2.3c-.4.2-.3.6 0 .8l4.2 2.4c.4.2 1 .2 1.3 0Zm6.4-3.7 4.2-2.4c.3-.2.3-.5-.1-.7l-4.2-2.4c-.3-.2-1-.3-1.3 0l-4.1 2.3c-.4.2-.3.6 0 .8l4.2 2.4c.4.2 1 .2 1.3 0Zm-6.6-3.7 4.2-2.5c.3-.2.3-.5-.1-.7l-1.4-.8c-.4-.2-1-.3-1.3 0l-4.2 2.3c-.3.2-.3.6.1.8l1.4.8c.4.2 1 .2 1.3 0Zm-8.4 4.8 4.2-2.4c.3-.2.3-.6 0-.8l-1.4-.8c-.4-.2-1-.2-1.4 0l-4.1 2.4c-.4.2-.3.5 0 .7l1.4.8c.4.2 1 .3 1.3 0Zm-6.3 3.6 4.1-2.4c.4-.2.3-.5 0-.7l-1.4-.8c-.4-.2-1-.3-1.3 0l-4.2 2.3c-.3.2-.3.6 0 .8l1.5.8c.3.2 1 .2 1.3 0Zm-6.4 3.7 4.2-2.4c.3-.2.2-.5-.1-.7l-1.4-.8c-.4-.2-1-.3-1.3 0l-4.2 2.3c-.3.2-.3.6.1.8l1.4.8c.4.2 1 .2 1.3 0Zm-6.4 3.7 4.2-2.4c.3-.2.3-.5-.1-.8l-1.4-.7c-.4-.3-1-.3-1.3-.1l-4.2 2.4c-.3.2-.3.5.1.8l1.4.8c.4.2 1 .2 1.3 0Zm-35.6 20.6 4.1-2.4c.4-.2.3-.6 0-.8l-1.4-.8c-.4-.2-1-.2-1.3 0l-4.2 2.4c-.3.2-.3.5.1.7l1.4.8c.4.2 1 .3 1.3 0Z" clip-rule="evenodd"/>
  <path fill="#D5D5D5" fill-rule="evenodd" d="m75 165 4.3-2.4c.3-.2.3-.5-.1-.7l-1.4-.8c-.4-.2-1-.3-1.3 0l-4.2 2.3c-.3.2-.3.6.1.8l1.4.8c.4.2 1 .2 1.3 0Zm-6.3 3.7 4.2-2.4c.3-.2.3-.5-.1-.7l-1.4-.8c-.4-.2-1-.3-1.3 0L66 167c-.3.2-.2.6.1.8l1.4.8c.4.2 1 .2 1.3 0Zm-6.4 3.7 4.2-2.4c.3-.2.3-.5-.1-.8l-1.4-.7c-.3-.3-1-.3-1.3 0l-4.1 2.3c-.4.2-.3.5 0 .8l1.4.8c.4.2 1 .2 1.3 0Z" clip-rule="evenodd"/>
  <path fill="#D4D4D4" fill-rule="evenodd" d="m125.5 143.5 4.2-2.4c.3-.2.3-.5 0-.7l-4.2-2.4c-.4-.2-1-.2-1.3 0l-4.2 2.4c-.3.1-.3.5 0 .7l4.2 2.4c.4.2 1 .2 1.3 0Zm-6.5 3.8 4.3-2.4c.3-.2.3-.6-.1-.8l-4.2-2.4c-.4-.2-1-.2-1.3 0l-4.1 2.4c-.4.2-.3.5 0 .7l4.2 2.4c.4.2 1 .3 1.3 0Zm-6.3 3.7 4.1-2.4c.4-.2.3-.6 0-.8l-4.2-2.4c-.4-.2-1-.2-1.3 0l-4.2 2.4c-.3.2-.3.5.1.7l4.1 2.4c.4.2 1 .3 1.4 0Zm-6.5 3.7 4.2-2.4c.3-.2.3-.5-.1-.8l-4.1-2.3c-.4-.3-1-.3-1.4-.1l-4.1 2.4c-.4.2-.3.5 0 .8l4.2 2.3c.4.3 1 .3 1.3 0Zm-6.4 3.7 4.1-2.4c.4-.2.3-.5 0-.8l-4.2-2.3c-.4-.3-1-.3-1.3 0l-4.2 2.3c-.3.2-.3.5.1.8l4.2 2.4c.4.2 1 .2 1.3 0Zm-6.5 3.7 4.2-2.4c.3-.2.3-.5 0-.7l-4.2-2.4c-.4-.2-1-.3-1.3 0l-4.2 2.3c-.3.2-.3.6 0 .8L92 162c.4.2 1 .2 1.3 0Zm-6.4 3.7 4.2-2.4c.3-.2.3-.5-.1-.7l-4.2-2.4c-.4-.2-1-.3-1.3 0l-4.1 2.3c-.4.2-.3.6 0 .8l4.2 2.4c.4.2 1 .2 1.3 0Z" clip-rule="evenodd"/>
  <path fill="#D5D5D5" fill-rule="evenodd" d="m80.5 169.6 4.1-2.4c.4-.2.3-.6 0-.8l-4.2-2.4c-.4-.2-1-.2-1.3 0l-4.2 2.4c-.3.2-.3.5.1.7l4.1 2.4c.4.2 1 .3 1.4 0Zm-6.5 3.7 4.2-2.4c.3-.2.3-.6-.1-.8l-4.1-2.4c-.4-.2-1-.2-1.4 0l-4.1 2.4c-.4.2-.3.5 0 .7l4.2 2.4c.4.2 1 .3 1.3 0Z" clip-rule="evenodd"/>
  <path fill="#D4D4D4" fill-rule="evenodd" d="m162.3 144 12.3-7c.4-.3.3-.6 0-.8l-4.2-2.4c-.4-.2-1-.3-1.3 0l-12.3 7c-.3.2-.3.5.1.8l4.1 2.4c.4.2 1 .2 1.3 0Z" clip-rule="evenodd"/>
  <path fill="#D5D5D5" fill-rule="evenodd" d="m83.2 189.7 12.3-7.1c.3-.2.3-.6 0-.8l-4.2-2.4c-.4-.2-1-.2-1.3 0l-12.3 7c-.3.3-.3.6 0 .8l4.2 2.4c.4.2 1 .2 1.3 0ZM109 183l4.2-2.4c.3-.2.2-.5-.1-.8l-5-2.8c-.3-.2-1-.2-1.3 0l-4.1 2.4c-.4.1-.3.5 0 .7l5 2.8c.4.3 1 .3 1.3.1Z" clip-rule="evenodd"/>
  <path fill="#D4D4D4" fill-rule="evenodd" d="m155.8 156 6.6-3.8c.4-.2.3-.6 0-.8l-5-2.8c-.4-.2-1-.3-1.3 0l-6.7 3.8c-.3.2-.3.5.1.7l5 2.9c.3.2 1 .2 1.3 0Z" clip-rule="evenodd"/>
  <path fill="#D5D5D5" fill-rule="evenodd" d="m115.2 179.4 6.7-3.8c.3-.2.3-.6-.1-.8l-5-2.8c-.3-.2-1-.3-1.3 0l-6.6 3.8c-.4.2-.3.5 0 .7l5 2.9c.4.2 1 .2 1.3 0Z" clip-rule="evenodd"/>
  <path fill="#D4D4D4" fill-rule="evenodd" d="m146.8 154-29 16.6c-.4.2-.4.6 0 .8l5 2.9c.3.2 1 .2 1.3 0l29-16.7-6.3-3.7Z" clip-rule="evenodd"/>
  <path fill="#D5D5D5" fill-rule="evenodd" d="m91 189.7-4.7 2.7c-.2.2-.2.5.1.6l2 1.2c.3.2.8.2 1.1 0l4.6-2.6c.3-.2.3-.5 0-.7l-2-1.1c-.4-.2-.8-.2-1.1 0Zm6.5-3.7-4.7 2.7c-.2.1-.2.4.1.6l2 1.2c.3.1.8.2 1.1 0l4.6-2.7c.3-.1.3-.4 0-.6l-2-1.2c-.4-.1-.8-.2-1.1 0Zm6.5-3.7-4.7 2.7c-.3.1-.3.4 0 .6l2 1.1c.4.2.9.2 1.1 0l4.7-2.6c.3-.2.2-.4-.1-.6l-2-1.2c-.3-.2-.8-.2-1 0ZM94 184l-4.7 2.6c-.3.2-.3.5 0 .6l2 1.2c.4.2.9.2 1.1 0l4.7-2.6c.3-.2.2-.5 0-.7L95 184c-.3-.2-.8-.2-1 0Z" clip-rule="evenodd"/>
  <path fill="#EDEEEE" fill-rule="evenodd" d="m106.9 71.8 10.4-6-.4-2.3-10.5 6 .5 2.3ZM108 77l10.5-6-.5-2.3-10.4 6 .4 2.3Zm2.3 10.5 10.5-6-.5-2.3-10.5 6 .5 2.3Z" clip-rule="evenodd"/>
  <path fill="url(#c)" fill-rule="evenodd" d="m58.3 107 8 36.5-5.7 3.2-7.9-36.6 5.6-3.2Z" clip-rule="evenodd"/>
  <path fill="url(#d)" fill-rule="evenodd" d="m62 95 9.8 45.3-5.6 3.2-9.8-45.2 5.6-3.2Z" clip-rule="evenodd"/>
  <path fill="url(#e)" fill-rule="evenodd" d="M67 89.2 77.4 137l-5.6 3.3-10.4-48 5.6-3Z" clip-rule="evenodd"/>
  <path fill="url(#f)" fill-rule="evenodd" d="M70.7 78 83 133.8l-5.6 3.2-12.2-55.8 5.5-3.2Z" clip-rule="evenodd"/>
  <path stroke="#5E5E5E" stroke-miterlimit="22.9" d="m168.5 270.3 218.8-126 205.4 118.3-218.8 126-205.4-118.3Z" clip-rule="evenodd"/>
  <path stroke="#5E5E5E" stroke-miterlimit="22.9" d="M161.2 217.2 211 246m-71.8 57.7 22-12.8 28.3 16.5 21.5-12.6"/>
  <path fill="#E0DFDF" fill-rule="evenodd" stroke="#5E5E5E" stroke-miterlimit="22.9" d="m378.6 243 46.6-26.9V28l-46.6 27v188Z" clip-rule="evenodd"/>
  <path fill="#C1C2C2" fill-rule="evenodd" d="m419.2 189.5-6.8 4v16.7l6.8-4v-16.7Zm0-93-6.8 4v16.7l6.8-4V96.7Zm-7.9 4.6-16.6 9.6v16.7l16.6-9.5V101Zm-17.6 10.2-7.6 4.4v16.7l7.6-4.3v-16.8Zm25.5-72.6-6.8 4v16.7l6.8-4V38.7Zm-7.9 4.6-16.6 9.6v16.7l16.6-9.6V43.3Zm-17.6 10.2-7.6 4.4v16.7l7.6-4.4V53.5Zm25.5 4.6v16.7l-6.8 4V62l6.8-4Zm-7.9 4.5v16.7L394.7 89V72.2l16.6-9.6Zm-17.6 10.2v16.7L386 94V77.2l7.6-4.4Zm25.5 4.4V94l-6.8 4V81.1l6.8-4Zm-7.9 4.6v16.7l-16.6 9.6V91.4l16.6-9.6ZM393.7 92v16.7l-7.6 4.4V96.4l7.6-4.4Zm17.6 102-16.6 9.6v16.7l16.6-9.5V194Zm-17.6 10.3-7.6 4.3v16.7l7.6-4.3v-16.7Zm25.5-72.7-6.8 4v16.7l6.8-4v-16.7Zm-7.9 4.6-16.6 9.6v16.7l16.6-9.6v-16.7Zm-17.6 10.2-7.6 4.4v16.7l7.6-4.4v-16.7Zm25.5 4.6v16.7l-6.8 4v-16.8l6.8-4Zm-7.9 4.5v16.8l-16.6 9.5v-16.7l16.6-9.6Zm-17.6 10.2v16.8l-7.6 4.3v-16.7l7.6-4.4Zm25.5 4.5v16.7l-6.8 4V174l6.8-4Zm-7.9 4.5v16.7l-16.6 9.6v-16.7l16.6-9.6ZM393.7 185v16.7L386 206v-16.7l7.6-4.4Z" clip-rule="evenodd"/>
  <path fill="#EDEEEE" fill-rule="evenodd" stroke="#5E5E5E" stroke-miterlimit="22.9" d="m332 216.1 46.6 27V54.7l-46.6-27V216Z" clip-rule="evenodd"/>
  <path fill="#EDEEEE" fill-rule="evenodd" stroke="#5E5E5E" stroke-miterlimit="22.9" d="M425.2 28 378.6 1 332 28l46.6 26.8L425.2 28Z" clip-rule="evenodd"/>
  <path fill="#D8D8D8" fill-rule="evenodd" d="m370.1 155.6 3.1 1.8V150l-3-1.8v7.3Zm0-92.2 3.1 1.8V58l-3-1.7v7.2Zm-5.4-3 3 1.8v-7.3l-3-1.8v7.3Zm-5.5-3.1 3 1.8v-7.3l-3-1.8v7.3Zm-5.5-3.1 3.1 1.8v-7.3l-3-1.8v7.3Zm-5.4-3.1 3 1.8v-7.3l-3-1.8v7.3Zm-5.5-3 3 1.7v-7.3l-3-1.8V48Zm-5.5-3.1 3.1 1.7v-7.2l-3-1.8V45Zm32.8 28.6 3.1 1.8v-7.3l-3-1.8v7.3Zm-5.4-3 3 1.7v-7.2l-3-1.8v7.3Zm-5.5-3.1 3 1.8V62l-3-1.8v7.3Zm-5.5-3.1 3.1 1.8v-7.3l-3-1.8v7.3Zm-5.4-3.1 3 1.8v-7.3l-3-1.8v7.3Zm-5.5-3.1 3 1.8v-7.3l-3-1.8v7.3Zm-5.5-3 3.1 1.7v-7.2l-3-1.8V55Zm32.8 28.6 3.1 1.8v-7.3l-3-1.8v7.3Zm-5.4-3 3 1.7v-7.3l-3-1.7v7.2Zm-5.5-3.1 3 1.7v-7.2l-3-1.8v7.3Zm-5.5-3.1 3.1 1.7v-7.2l-3-1.8v7.3Zm-5.4-3.2 3 1.8V66l-3-1.8v7.2Zm-5.5-3 3 1.8v-7.3l-3-1.8v7.3Zm-5.5-3 3.1 1.7v-7.3l-3-1.8v7.3ZM370.1 94l3.1 1.8v-7.3l-3-1.8V94Zm-5.4-3 3 1.7v-7.3l-3-1.8V91Zm-5.5-3.2 3 1.8v-7.3l-3-1.7v7.2Zm-5.5-3 3.1 1.7v-7.3l-3-1.7v7.2Zm-5.4-3.2 3 1.8v-7.3l-3-1.7v7.2Zm-5.5-3 3 1.7v-7.2l-3-1.8v7.2Zm-5.5-3.1 3.1 1.8V70l-3-1.8v7.3Zm32.8 28.7 3.1 1.8v-7.3l-3-1.8v7.3Zm-5.4-3 3 1.7v-7.3l-3-1.8v7.3Zm-5.5-3.2 3 1.8v-7.2l-3-1.8V98Zm-5.5-3 3.1 1.7v-7.2l-3-1.8v7.2Zm-5.4-3.2 3 1.8v-7.2l-3-1.8v7.2Zm-5.5-3 3 1.7v-7.2l-3-1.8v7.3Zm-5.5-3 3.1 1.7v-7.3l-3-1.8v7.3Zm32.8 28.6 3.1 1.7V109l-3-1.8v7.3Zm-5.4-3.1 3 1.8v-7.3l-3-1.8v7.3Zm-5.5-3 3 1.7v-7.3l-3-1.8v7.3Zm-5.5-3.2 3.1 1.8v-7.3l-3-1.7v7.2Zm-5.4-3 3 1.7v-7.3l-3-1.8v7.3Zm-5.5-3.2 3 1.8v-7.3l-3-1.7v7.2Zm-5.5-3 3.1 1.8v-7.3l-3-1.8V96Zm32.8 28.6 3.1 1.8V119l-3-1.7v7.2Zm-5.4-3 3 1.8V116l-3-1.8v7.3Zm-5.5-3.1 3 1.8v-7.3l-3-1.8v7.3Zm-5.5-3.1 3.1 1.8v-7.3l-3-1.8v7.3Zm-5.4-3.1 3 1.8v-7.3l-3-1.8v7.3Zm-5.5-3 3 1.7v-7.3l-3-1.8v7.3Zm-5.5-3.1 3.1 1.8v-7.3l-3-1.8v7.3Zm32.8 28.6 3.1 1.8v-7.3l-3-1.8v7.3Zm-5.4-3 3 1.7v-7.2l-3-1.8v7.3Zm-5.5-3.1 3 1.8V123l-3-1.8v7.3Zm-5.5-3.1 3.1 1.8V120l-3-1.8v7.3Zm-5.4-3.1 3 1.8v-7.3l-3-1.8v7.3Zm-5.5-3.1 3 1.8v-7.3l-3-1.8v7.3Zm21.9 33.3 3 1.7v-7.2l-3-1.8v7.3Zm-5.5-3.1 3 1.8V144l-3-1.8v7.3Zm-5.5-3.1 3.1 1.8v-7.3l-3-1.8v7.3Zm-5.4-3.1 3 1.8v-7.3l-3-1.8v7.3Zm-5.5-3.1 3 1.8v-7.3l-3-1.8v7.3Zm-5.5-3 3.1 1.7v-7.2l-3-1.8v7.2Zm32.8 28.6 3.1 1.8v-7.3l-3-1.8v7.3Zm-5.4-3 3 1.7v-7.3l-3-1.7v7.2Zm-5.5-3.2 3 1.8v-7.2l-3-1.8v7.2Zm-5.5-3 3.1 1.7v-7.2l-3-1.8v7.3Zm-5.4-3.2 3 1.8V148l-3-1.8v7.2Zm-5.5-3 3 1.7V145l-3-1.8v7.3Zm-5.5-3 3.1 1.7v-7.3l-3-1.8v7.3Zm32.8 28.6 3.1 1.7v-7.2l-3-1.8v7.3Zm-5.4-3 3 1.7v-7.3l-3-1.8v7.3Zm-5.5-3.2 3 1.8v-7.3l-3-1.7v7.2Zm-5.5-3 3.1 1.7v-7.3l-3-1.7v7.2Zm-5.4-3.2 3 1.8v-7.3l-3-1.7v7.2Zm-5.5-3 3 1.7v-7.2l-3-1.8v7.2Zm-5.5-3.1 3.1 1.8V152l-3-1.8v7.3Zm32.8 28.6 3.1 1.8v-7.2l-3-1.8v7.2Zm-5.4-3 3 1.8v-7.3l-3-1.8v7.3Zm-5.5-3.1 3 1.8v-7.3l-3-1.8v7.3Zm-5.5-3 3.1 1.7v-7.3l-3-1.8v7.3Zm-5.4-3.2 3 1.8v-7.3l-3-1.8v7.3Zm-5.5-3 3 1.7v-7.3l-3-1.8v7.3Zm-5.5-3.1 3.1 1.8v-7.3l-3-1.8v7.3Zm32.8 28.7 3.1 1.7V191l-3-1.8v7.3Zm-5.4-3.1 3 1.8v-7.3l-3-1.8v7.3Zm-5.5-3 3 1.7v-7.3l-3-1.8v7.3Zm-5.5-3.2 3.1 1.8v-7.3l-3-1.8v7.3Zm-5.4-3 3 1.7v-7.3l-3-1.8v7.3Zm-5.5-3.2 3 1.8v-7.3l-3-1.7v7.2Zm-5.5-3 3.1 1.8v-7.3l-3-1.8v7.3Zm32.8 28.6 3.1 1.8V201l-3-1.7v7.2Zm-5.4-3 3 1.8V198l-3-1.8v7.3Zm-5.5-3.1 3 1.8v-7.3l-3-1.8v7.3Zm-5.5-3.1 3.1 1.8v-7.3l-3-1.8v7.3Zm-5.4-3.1 3 1.8v-7.3l-3-1.8v7.3Zm-5.5-3 3 1.7v-7.3l-3-1.8v7.3Zm-5.5-3.1 3.1 1.7v-7.2l-3-1.8v7.3Zm32.8 28.6 3.1 1.8v-7.3l-3-1.8v7.3Zm-5.4-3 3 1.7v-7.2l-3-1.8v7.3Zm-5.5-3.1 3 1.8V205l-3-1.8v7.3Zm-5.5-3.1 3.1 1.8V202l-3-1.8v7.3Zm-5.4-3.1 3 1.8v-7.3l-3-1.8v7.3Zm-5.5-3.1 3 1.8v-7.3l-3-1.8v7.3Zm-5.5-3 3.1 1.7v-7.2l-3-1.8v7.2Zm32.8 28.6 3.1 1.8v-7.3l-3-1.8v7.3Zm-5.4-3 3 1.7v-7.3l-3-1.7v7.2Zm-5.5-3.1 3 1.7v-7.2l-3-1.8v7.3Zm-5.5-3.1 3.1 1.7v-7.2l-3-1.8v7.3Zm-5.4-3.1 3 1.7v-7.2l-3-1.8v7.3Zm-5.5-3.1 3 1.8V206l-3-1.8v7.3Zm-5.5-3 3.1 1.7V203l-3-1.8v7.3Zm0-92.3 3.1 1.8v-7.2l-3-1.8v7.2Z" clip-rule="evenodd"/>
  <path fill="#EDEEEE" fill-rule="evenodd" stroke="#5E5E5E" stroke-miterlimit="22.9" d="m233.7 268.9 49.8 28.7V112l-49.8-28.8V269Z" clip-rule="evenodd"/>
  <path fill="#D8D8D8" fill-rule="evenodd" d="m280 117.3-8.3-4.8v57.7l8.3 4.9v-57.8Zm-9.2-5.3-7.6-4.4v57.8l7.6 4.4V112Zm-8.4-4.9-7.6-4.4v57.8l7.6 4.4v-57.8Zm-8.4-4.8-7.6-4.4v57.7l7.6 4.4v-57.7Zm-8.4-4.9-8-4.6v57.8l8 4.6V97.4Zm-8 55.6 8 4.6v55.2l-8-4.6V153Zm0 57.6V264l8 4.5v-53.2l-8-4.6Zm8.8 58.3 7.6 4.4v-53.2l-7.6-4.4v53.2Zm7.6-51.2-7.6-4.4V158l7.6 4.4v55.3Zm.8 56 7.6 4.5v-53.3l-7.6-4.4v53.3Zm7.6-51.2-7.6-4.3v-55.3l7.6 4.4v55.2Zm.8 56.1 7.6 4.4v-53.2l-7.6-4.4v53.2Zm7.6-51.2-7.6-4.4v-55.2l7.6 4.4v55.2Zm.9 56 8.3 5V235l-8.3-4.8v53.2Zm8.3-50.7-8.3-4.8v-55.3l8.3 4.8v55.3Z" clip-rule="evenodd"/>
  <path fill="#EDEEEE" fill-rule="evenodd" stroke="#5E5E5E" stroke-miterlimit="22.9" d="M333.3 83.2 283.5 112l-49.8-29 49.8-28.7 49.8 29Z" clip-rule="evenodd"/>
  <path fill="#E0DFDF" fill-rule="evenodd" stroke="#5E5E5E" stroke-miterlimit="22.9" d="m333.3 268.9-49.8 28.7V112l49.8-28.8V269Z" clip-rule="evenodd"/>
  <path fill="#C1C2C2" fill-rule="evenodd" d="m287 117.3 8.4-4.8v57.7l-8.4 4.9v-57.8Zm9.2-5.3 7.6-4.4v57.8l-7.6 4.4V112Zm8.4-4.9 7.6-4.4v57.8l-7.6 4.4v-57.8Zm8.4-4.8 7.7-4.4v57.7L313 160v-57.7Zm8.5-4.9 8-4.6v57.8l-8 4.6V97.4Zm8 55.6-8 4.6v55.2l8-4.6V153Zm0 57.6V264l-8 4.5v-53.2l8-4.6Zm-8.8 58.3-7.7 4.4v-53.2l7.7-4.4v53.2Zm-7.7-51.2 7.7-4.4V158l-7.7 4.4v55.3Zm-.8 56-7.6 4.5v-53.3l7.6-4.4v53.3Zm-7.6-51.2 7.6-4.3v-55.3l-7.6 4.4v55.2Zm-.8 56.1-7.6 4.4v-53.2l7.6-4.4v53.2Zm-7.6-51.2 7.6-4.4v-55.2l-7.6 4.4v55.2Zm-.8 56-8.4 5V235l8.4-4.8v53.2Zm-8.4-50.7 8.4-4.8v-55.3l-8.4 4.8v55.3Z" clip-rule="evenodd"/>
  <path fill="#EDEEEE" fill-rule="evenodd" stroke="#5E5E5E" stroke-miterlimit="22.9" d="M468.3 294.8 423.8 269V102.6l44.5 25.6v166.6Z" clip-rule="evenodd"/>
  <path fill="#E0DFDF" fill-rule="evenodd" stroke="#5E5E5E" stroke-miterlimit="22.9" d="m468.3 294.8 44.5-25.7V102.6l-44.5 25.6v166.6Z" clip-rule="evenodd"/>
  <path fill="#EDEEEE" fill-rule="evenodd" stroke="#5E5E5E" stroke-miterlimit="22.9" d="m512.8 102.6-44.5-25.8-44.5 25.8 44.5 25.6 44.5-25.6Z" clip-rule="evenodd"/>
  <path fill="#C1C2C2" fill-rule="evenodd" d="M489.5 224.2 470 235.5v-3l19.6-11.3v3Zm0-102.4L470 133.2v-3l19.6-11.3v3Zm21.2-12.3L491.1 121v-3l19.6-11.3v3ZM489.5 126v-3L470 134.3v3l19.6-11.4Zm21.2-12.3v-3L491.1 122v3l19.6-11.4ZM489.5 130v-3L470 138.4v3l19.6-11.4Zm21.2-12.3v-3l-19.6 11.4v3l19.6-11.4Zm-21.2 16.4v-3L470 142.5v3l19.6-11.4Zm21.2-12.3v-3l-19.6 11.4v3l19.6-11.4Zm-21.2 20.5L470 153.6v-3l19.6-11.3v3Zm21.2-12.3-19.6 11.3v-3l19.6-11.3v3Zm-21.2 16.4L470 157.7v-3l19.6-11.3v3Zm21.2-12.3-19.6 11.3v-3l19.6-11.3v3Zm-21.2 16.4v-3L470 158.8v3l19.6-11.3Zm21.2-12.3v-3l-19.6 11.4v3l19.6-11.4Zm-21.2 16.3v-3L470 163v3l19.6-11.4Zm21.2-12.3v-2.9l-19.6 11.3v3l19.6-11.3Zm-21.2 20.5L470 174.1v-3l19.6-11.3v3Zm21.2-12.2-19.6 11.3v-3l19.6-11.3v3Zm-21.2 16.3L470 178.2v-3l19.6-11.3v3Zm21.2-12.3L491.1 166v-3l19.6-11.3v3ZM489.5 171v-3L470 179.4v3l19.6-11.4Zm21.2-12.3v-3L491.1 167v3l19.6-11.4ZM489.5 175v-3L470 183.5v3l19.6-11.4Zm21.2-12.3v-3l-19.6 11.4v3l19.6-11.4Zm-21.2 20.5L470 194.6v-3l19.6-11.3v3Zm21.2-12.3-19.6 11.4v-3l19.6-11.3v3Zm-21.2 16.4L470 198.6v-3l19.6-11.3v3Zm21.2-12.3-19.6 11.3v-3l19.6-11.2v3Zm-21.2 16.4v-3L470 199.8v3l19.6-11.4Zm21.2-12.3v-3l-19.6 11.4v3l19.6-11.4Zm-21.2 16.4v-3L470 204v3l19.6-11.4Zm21.2-12.3v-3l-19.6 11.4v3l19.6-11.4Zm-21.2 20.5L470 215v-3l19.6-11.3v3Zm21.2-12.3-19.6 11.3v-3l19.6-11.3v3Zm-21.2 16.4L470 219v-3l19.6-11.3v3Zm21.2-12.3-19.6 11.3v-3l19.6-11.3v3Zm-21.2 16.4v-3L470 220.3v3l19.6-11.4Zm21.2-12.3v-3L491.1 208v3l19.6-11.4Zm-21.2 16.3v-3L470 224.4v3l19.6-11.4Zm21.2-4-19.6 11.3v-3l19.6-11.3v3Zm-21.2 16.3v-3L470 236.7v3l19.6-11.4Zm21.2-12.3v-3l-19.6 11.4v3l19.6-11.4Zm-21.2 16.4v-3L470 240.8v3l19.6-11.4Zm21.2-12.3v-2.9l-19.6 11.3v3l19.6-11.4Zm-21.2 16.4v-3L470 244.9v3l19.6-11.4Zm21.2-12.3v-3l-19.6 11.4v3l19.6-11.4Zm0-20.4v-3L491.1 212v3l19.6-11.3ZM489.5 265 470 276.5v-3l19.6-11.3v3Zm0-20.4L470 256v-3l19.6-11.3v3Zm21.2-12.3-19.6 11.4v-3l19.6-11.3v3Zm-21.2 16.4v-3L470 257.1v3l19.6-11.4Zm21.2-12.3v-3l-19.6 11.4v3l19.6-11.4Zm-21.2 16.4v-3L470 261.3v3l19.6-11.4Zm21.2-12.3v-3L491.1 249v3l19.6-11.4ZM489.5 257v-3L470 265.3v3l19.6-11.4Zm21.2-4.1-19.6 11.3v-3l19.6-11.3v3Zm-21.2 16.4v-3L470 277.6v3l19.6-11.4Zm21.2-12.3v-3l-19.6 11.4v3l19.6-11.4Zm-21.2 16.4v-3L470 281.7v3l19.6-11.4Zm21.2-12.3v-3l-19.6 11.4v3l19.6-11.4Zm-21.2 16.3v-3L470 285.8v3l19.6-11.4Zm21.2-12.2v-3l-19.6 11.3v3l19.6-11.3Zm0-20.5v-3L491.1 253v3l19.6-11.4Z" clip-rule="evenodd"/>
  <path fill="#D8D8D8" fill-rule="evenodd" d="m447.2 265 19.6 11.4v-3l-19.6-11.3v3Zm0-143.2 19.6 11.4v-3l-19.6-11.3v3ZM426 109.5l19.6 11.4v-3L426 106.6v3Zm21.2 16.4v-3l19.6 11.4v3l-19.6-11.4ZM426 113.6v-3l19.6 11.4v3L426 113.5Zm21.2 16.4v-3l19.6 11.4v3L447.2 130ZM426 117.7v-3l19.6 11.4v3L426 117.6Zm21.2 16.4v-3l19.6 11.4v3L447.2 134ZM426 121.8v-3l19.6 11.4v3L426 121.7Zm21.2 20.5 19.6 11.3v-3l-19.6-11.3v3ZM426 130l19.6 11.3v-3L426 127v3Zm21.2 16.4 19.6 11.3v-3l-19.6-11.3v3ZM426 134l19.6 11.3v-3L426 131.2v3Zm21.2 16.4v-3l19.6 11.3v3l-19.6-11.3ZM426 138.2v-3l19.6 11.4v3L426 138.1Zm21.2 16.3v-3l19.6 11.4v3l-19.6-11.4ZM426 142.2v-2.9l19.6 11.3v3L426 142.3Zm21.2 20.5 19.6 11.4v-3l-19.6-11.3v3ZM426 150.5l19.6 11.3v-3L426 147.5v3Zm21.2 16.3 19.6 11.4v-3L447.2 164v3ZM426 154.5l19.6 11.4v-3L426 151.6v3Zm21.2 16.4v-3l19.6 11.4v3l-19.6-11.4ZM426 158.6v-3l19.6 11.4v3L426 158.6Zm21.2 16.4v-3l19.6 11.4v3L447.2 175ZM426 162.7v-3l19.6 11.4v3L426 162.7Zm21.2 20.5 19.6 11.4v-3l-19.6-11.3v3ZM426 171l19.6 11.4v-3L426 168v3Zm21.2 16.4 19.6 11.3v-3l-19.6-11.3v3ZM426 175l19.6 11.3v-3L426 172.2v3Zm21.2 16.4v-3l19.6 11.4v3l-19.6-11.4ZM426 179.1v-3l19.6 11.4v3L426 179Zm21.2 16.4v-3l19.6 11.4v3l-19.6-11.4ZM426 183.2v-3l19.6 11.4v3L426 183.1Zm21.2 20.5 19.6 11.3v-3l-19.6-11.3v3ZM426 191.4l19.6 11.3v-3L426 188.5v3Zm21.2 16.4 19.6 11.3v-3l-19.6-11.3v3ZM426 195.5l19.6 11.3v-3L426 192.6v3Zm21.2 16.4v-3l19.6 11.4v3l-19.6-11.4ZM426 199.6v-3l19.6 11.4v3L426 199.5Zm21.2 16.3v-3l19.6 11.4v3l-19.6-11.4ZM426 203.7v-3l19.6 11.3v3L426 203.7Zm21.2 20.5 19.6 11.3v-3l-19.6-11.3v3ZM426 211.9l19.6 11.3v-3L426 209v3Zm21.2 16.3 19.6 11.4v-3l-19.6-11.3v3ZM426 216l19.6 11.4v-3L426 213v3Zm21.2 16.4v-3l19.6 11.4v3l-19.6-11.4ZM426 220v-2.9l19.6 11.3v3L426 220Zm21.2 16.4v-3l19.6 11.4v3l-19.6-11.4ZM426 224.1v-3l19.6 11.4v3L426 224Zm21.2 20.5 19.6 11.4v-3l-19.6-11.3v3ZM426 232.3l19.6 11.4v-3L426 229.4v3Zm21.2 16.4 19.6 11.3v-3l-19.6-11.3v3ZM426 236.4l19.6 11.3v-2.9L426 233.5v3Zm21.2 16.4v-3l19.6 11.4v3l-19.6-11.4ZM426 240.5v-3l19.6 11.4v3L426 240.5Zm21.2 16.4v-3l19.6 11.4v3l-19.6-11.4Zm-21.2-4.1 19.6 11.3v-3L426 249.9v3Zm21.2 16.4v-3l19.6 11.4v3l-19.6-11.4ZM426 256.9v-3l19.6 11.4v3L426 256.8Zm21.2 16.4v-3l19.6 11.4v3l-19.6-11.4ZM426 261v-3l19.6 11.4v3L426 261Zm21.2 16.3v-3l19.6 11.4v3l-19.6-11.4ZM426 265.1v-3l19.6 11.3v3L426 265.1Zm0-20.5v-3l19.6 11.4v3L426 244.5Z" clip-rule="evenodd"/>
  <path fill="#EDEEEE" fill-rule="evenodd" stroke="#5E5E5E" stroke-miterlimit="22.9" d="m373.2 349.5-56.9-32.8V290l56.9 32.8v26.6Z" clip-rule="evenodd"/>
  <path fill="#E0DFDF" fill-rule="evenodd" stroke="#5E5E5E" stroke-miterlimit="22.9" d="m373.2 349.5 56.8-32.8V290l-56.8 32.8v26.6Z" clip-rule="evenodd"/>
  <path fill="#EDEEEE" fill-rule="evenodd" stroke="#5E5E5E" stroke-miterlimit="22.9" d="m430 290-56.8-32.6-56.9 32.7 56.9 32.8L430 290Z" clip-rule="evenodd"/>
  <path fill="#EDEEEE" fill-rule="evenodd" stroke="#5E5E5E" stroke-miterlimit="22.9" d="m373.2 320.5-53.4-30.8V179l53.4 30.8v110.7Z" clip-rule="evenodd"/>
  <path fill="#E0DFDF" fill-rule="evenodd" stroke="#5E5E5E" stroke-miterlimit="22.9" d="m373.2 320.4 53.4-30.8V179l-53.4 30.8v110.6Z" clip-rule="evenodd"/>
  <path fill="#EDEEEE" fill-rule="evenodd" stroke="#5E5E5E" stroke-miterlimit="22.9" d="m426.6 179-53.4-30.7-53.4 30.7 53.4 30.8 53.4-30.8Z" clip-rule="evenodd"/>
  <path fill="#C1C2C2" fill-rule="evenodd" d="m416.8 304.2 8.9-5.1v13.6l-8.9 5.1v-13.6Zm-11.7-108.5-27.3 15.7V239l27.3-15.7v-27.5Zm5.9-3.5v27.6l11-6.4V186l-11 6.3Zm-6 41v27.5l-27.2 15.7V249l27.3-15.8Zm6-3.5v27.6l11-6.4v-27.5l-11 6.3Zm-6 39.9-27.2 15.7v27.5l27.3-15.7v-27.5Zm6-3.5v27.6l11-6.3v-27.6l-11 6.3ZM377.5 327l8.8-5.1v13.6l-8.8 5.1V327Zm9.8-5.7 8.8-5.1v13.6l-8.8 5.1v-13.6Zm9.8-5.7 8.9-5.1V324l-8.9 5.2v-13.7Zm9.9-5.7 8.8-5v13.6l-8.8 5v-13.6Z" clip-rule="evenodd"/>
  <path fill="#D8D8D8" fill-rule="evenodd" d="m359.5 324.4-10.9-6.3v16.8l10.9 6.3v-16.8Zm-24.2-132.5v27.5l-11-6.3v-27.6l11 6.4Zm6 3.4 27.2 15.7v27.6l-27.3-15.8v-27.5Zm-6 34V257l-11-6.4V223l11 6.3Zm6 3.4v27.6l27.2 15.7v-27.5l-27.3-15.8Zm-6 33v27.6l-11-6.3v-27.6l11 6.4Zm6 3.5 27.2 15.7v27.6l-27.3-15.8v-27.5Zm-6 41.2-11-6.3V321l11 6.3v-16.8Zm12 7-10.8-6.3v16.8l10.9 6.3v-16.8Z" clip-rule="evenodd"/>
  <defs>
    <linearGradient id="a" x1="81.4" x2="90.9" y1="322.3" y2="304" gradientUnits="userSpaceOnUse">
      <stop stop-color="#BB0C42"/>
      <stop offset=".6" stop-color="#F4D105"/>
      <stop offset="1" stop-color="#F8EC64"/>
    </linearGradient>
    <linearGradient id="b" x1="87" x2="98.2" y1="324.6" y2="303" gradientUnits="userSpaceOnUse">
      <stop stop-color="#BB0C42"/>
      <stop offset=".6" stop-color="#F4D105"/>
      <stop offset="1" stop-color="#F8EC64"/>
    </linearGradient>
    <linearGradient id="c" x1="57.5" x2="63.2" y1="139.3" y2="102.7" gradientUnits="userSpaceOnUse">
      <stop stop-color="#BB0C42"/>
      <stop offset=".6" stop-color="#F4D105"/>
      <stop offset="1" stop-color="#F8EC64"/>
    </linearGradient>
    <linearGradient id="d" x1="61.6" x2="69" y1="134.3" y2="90.2" gradientUnits="userSpaceOnUse">
      <stop stop-color="#BB0C42"/>
      <stop offset=".6" stop-color="#F4D105"/>
      <stop offset="1" stop-color="#F8EC64"/>
    </linearGradient>
    <linearGradient id="e" x1="66.7" x2="74.6" y1="130.5" y2="84.1" gradientUnits="userSpaceOnUse">
      <stop stop-color="#BB0C42"/>
      <stop offset=".6" stop-color="#F4D105"/>
      <stop offset="1" stop-color="#F8EC64"/>
    </linearGradient>
    <linearGradient id="f" x1="70.9" x2="80.3" y1="125.7" y2="72.4" gradientUnits="userSpaceOnUse">
      <stop stop-color="#BB0C42"/>
      <stop offset=".6" stop-color="#F4D105"/>
      <stop offset="1" stop-color="#F8EC64"/>
    </linearGradient>
  </defs>
</svg>
