<svg xmlns="http://www.w3.org/2000/svg" fill="none" viewBox="0 0 116 155">
  <path stroke="#BB2649" stroke-width="2" d="M57 77.5c0 21.31-3.23 40.56-8.43 54.45-2.6 6.95-5.67 12.5-9.03 16.3C36.18 152.05 32.6 154 29 154c-3.61 0-7.18-1.95-10.54-5.75-3.36-3.8-6.43-9.35-9.03-16.3C4.23 118.06 1 98.81 1 77.5c0-21.31 3.23-40.56 8.43-54.45 2.6-6.95 5.67-12.5 9.03-16.3C21.82 2.95 25.4 1 29 1c3.61 0 7.18 1.95 10.54 5.75 3.36 3.8 6.43 9.35 9.03 16.3C53.77 36.94 57 56.19 57 77.5Z"/>
  <path stroke="#BB2649" stroke-width="2" d="M78 77.5c0 21.31-3.23 40.56-8.43 54.45-2.6 6.95-5.67 12.5-9.03 16.3C57.18 152.05 53.6 154 50 154c-3.61 0-7.18-1.95-10.54-5.75-3.36-3.8-6.43-9.35-9.03-16.3C25.23 118.06 22 98.81 22 77.5c0-21.31 3.23-40.56 8.43-54.45 2.6-6.95 5.67-12.5 9.03-16.3C42.82 2.95 46.4 1 50 1c3.61 0 7.18 1.95 10.54 5.75 3.36 3.8 6.43 9.35 9.03 16.3C74.77 36.94 78 56.19 78 77.5Z"/>
  <path stroke="#BB2649" stroke-width="2" d="M95 77.5c0 21.31-3.23 40.56-8.43 54.45-2.6 6.95-5.67 12.5-9.03 16.3C74.18 152.05 70.6 154 67 154c-3.61 0-7.18-1.95-10.54-5.75-3.36-3.8-6.43-9.35-9.03-16.3C42.23 118.06 39 98.81 39 77.5c0-21.31 3.23-40.56 8.43-54.45 2.6-6.95 5.67-12.5 9.03-16.3C59.82 2.95 63.4 1 67 1c3.61 0 7.18 1.95 10.54 5.75 3.36 3.8 6.43 9.35 9.03 16.3C91.77 36.94 95 56.19 95 77.5Z"/>
  <path stroke="#BB2649" stroke-width="2" d="M115 77.5c0 21.31-3.23 40.56-8.43 54.45-2.6 6.95-5.67 12.5-9.03 16.3C94.18 152.05 90.6 154 87 154c-3.61 0-7.18-1.95-10.54-5.75-3.36-3.8-6.43-9.35-9.03-16.3C62.23 118.06 59 98.81 59 77.5c0-21.31 3.23-40.56 8.43-54.45 2.6-6.95 5.67-12.5 9.03-16.3C79.82 2.95 83.4 1 87 1c3.61 0 7.18 1.95 10.54 5.75 3.36 3.8 6.43 9.35 9.03 16.3 5.2 13.89 8.43 33.14 8.43 54.45Z"/>
</svg>
