<svg xmlns="http://www.w3.org/2000/svg" fill="none" viewBox="0 0 77 40">
  <g fill="#E3E2E2" clip-path="url(#a)">
    <path d="M3.173 2.945h7.688v-2.7H0v14.479h3.173V2.944Zm16.84 9.325c-2.441 0-4.516-2.086-4.516-4.785 0-2.577 2.075-4.663 4.516-4.663 2.562 0 4.515 2.086 4.515 4.663 0 2.699-1.953 4.785-4.515 4.785ZM21.355.123c-5.125-.86-9.518 3.558-8.664 8.711.488 3.068 3.05 5.522 6.101 6.135 5.125.736 9.396-3.558 8.542-8.711-.488-3.068-2.928-5.645-5.98-6.135Zm32.46 12.147c-2.44 0-4.515-2.086-4.515-4.785 0-2.577 2.074-4.663 4.515-4.663 2.562 0 4.515 2.086 4.515 4.663 0 2.699-1.953 4.785-4.515 4.785ZM55.157.123c-5.125-.86-9.396 3.558-8.664 8.711.488 3.068 3.05 5.522 6.101 6.135 5.126.736 9.397-3.558 8.664-8.711-.61-3.068-3.05-5.645-6.101-6.135Zm19.768 10.429c-.854.982-1.952 1.595-3.172 1.718-2.563.123-4.637-1.963-4.76-4.54-.121-2.7 1.71-4.908 4.272-5.03 1.22 0 2.44.49 3.294 1.35l1.587-2.087.122-.245C74.68.368 72.607-.245 70.288.123c-3.416.49-6.101 3.435-6.223 6.87-.244 4.54 3.417 8.222 7.81 7.976A7.564 7.564 0 0 0 77 12.515l-2.075-1.963Zm-34.778 4.294h3.173V.246H32.46v2.699c0 2.822 0 9.08-3.173 9.08v3.19c3.173 0 6.345-2.086 6.345-12.27h4.515v11.901Z"/>
    <path d="M53.815 12.27c-2.44 0-4.515-2.086-4.515-4.785 0-2.577 2.074-4.663 4.515-4.663 2.562 0 4.515 2.086 4.515 4.663 0 2.699-1.953 4.785-4.515 4.785ZM55.157.123c-5.125-.86-9.396 3.558-8.664 8.711.488 3.068 3.05 5.522 6.101 6.135 5.126.736 9.397-3.558 8.664-8.711-.61-3.068-3.05-5.645-6.101-6.135ZM3.417 37.914c-.854 0-1.587-.245-2.075-.859-.61-.49-.854-1.227-.854-2.086 0-.981.244-1.595.854-2.208.488-.614 1.22-.86 2.075-.86.976 0 1.708.369 2.196.982l-.854.86c-.244-.492-.732-.737-1.342-.737-.488 0-.854.123-1.22.49-.245.369-.489.86-.489 1.473 0 .491.244.982.488 1.35.367.368.733.49 1.22.49.61 0 1.099-.245 1.343-.613l.854.736c-.488.614-1.22.982-2.196.982Zm5.979-1.104c.488 0 .976-.123 1.22-.491.245-.368.489-.859.489-1.35 0-.613-.244-1.104-.489-1.472-.244-.368-.732-.49-1.22-.49s-.854.122-1.22.49c-.244.368-.366.859-.366 1.472 0 .491.122.982.366 1.35.366.368.732.49 1.22.49Zm0 1.104c-.854 0-1.586-.245-2.074-.859a2.882 2.882 0 0 1-.854-2.086c0-.859.244-1.595.854-2.208.488-.614 1.22-.86 2.074-.86.854 0 1.587.246 2.197.86.488.613.732 1.35.732 2.208 0 .86-.244 1.473-.732 2.086-.61.614-1.343.86-2.197.86Zm10.251-1.104c.366 0 .732-.123.854-.491.244-.368.366-.859.366-1.35 0-.613-.122-1.104-.366-1.472-.122-.368-.488-.49-.854-.49a.93.93 0 0 0-.61.245c-.245.122-.489.368-.61.49v2.332c.121.245.365.368.61.49.122.246.366.246.61.246Zm-3.54-3.804c-.365 0-.731.123-.975.49-.245.369-.367.86-.367 1.473 0 .491.122.982.367 1.35.244.368.61.49.976.49.244 0 .366 0 .61-.245a.955.955 0 0 0 .488-.49v-2.332c-.122-.122-.244-.368-.488-.49-.244-.123-.366-.246-.61-.246Zm-1.952-.245c.366-.614.854-.86 1.587-.86.61 0 1.098.246 1.464.982v-3.067h1.22v3.067c.488-.736.977-.981 1.587-.981s1.22.245 1.586.859c.366.49.61 1.227.61 2.208 0 .86-.244 1.595-.61 2.209-.366.49-.976.736-1.586.736-.61 0-1.099-.245-1.587-.859V40h-1.22v-2.945c-.366.614-.854.86-1.464.86-.733 0-1.22-.246-1.587-.737a4.255 4.255 0 0 1-.61-2.209c0-.981.244-1.718.61-2.208Zm11.837 5.03h-1.22V33.13h-1.587v-1.105H27.7v1.105h-1.708v4.662ZM77 19.019H0v7.307h77V19.02Z"/>
  </g>
  <defs>
    <clipPath id="a">
      <path fill="#fff" d="M0 0h77v40H0z"/>
    </clipPath>
  </defs>
</svg>
