<svg xmlns="http://www.w3.org/2000/svg" fill="none" viewBox="0 0 77 41">
  <path fill="#626262" d="M3.173 2.936h7.688V.23H0v14.51h3.173V2.936Z"/>
  <path fill="url(#a)" d="M0 19.036h77v7.144H0z"/>
  <path fill="#626262" d="M20.013 12.281c-2.44 0-4.515-2.09-4.515-4.795 0-2.583 2.074-4.673 4.515-4.673 2.562 0 4.515 2.09 4.515 4.673 0 2.705-1.953 4.795-4.515 4.795ZM21.355.108c-5.125-.861-9.518 3.566-8.664 8.73.488 3.075 3.05 5.534 6.101 6.149 5.126.738 9.397-3.566 8.542-8.73C26.846 3.181 24.406.6 21.355.106Z"/>
  <path fill="#383838" d="M53.815 12.281c-2.44 0-4.515-2.09-4.515-4.795 0-2.583 2.074-4.673 4.515-4.673 2.562 0 4.515 2.09 4.515 4.673 0 2.705-1.953 4.795-4.515 4.795ZM55.157.108c-5.125-.861-9.396 3.566-8.664 8.73.488 3.075 3.05 5.534 6.101 6.149 5.126.738 9.397-3.566 8.664-8.73-.61-3.075-3.05-5.657-6.101-6.15Z"/>
  <path fill="#626262" d="M74.925 10.56c-.854.984-1.952 1.599-3.172 1.721-2.563.123-4.637-1.967-4.76-4.55-.121-2.705 1.71-4.918 4.272-5.041 1.22 0 2.44.492 3.294 1.353l1.587-2.09.122-.247C74.68.354 72.607-.26 70.288.108c-3.415.492-6.1 3.442-6.222 6.886-.244 4.55 3.417 8.239 7.81 7.993A7.558 7.558 0 0 0 77 12.527l-2.075-1.967Zm-34.778 4.304h3.173V.23H32.46v2.705c0 2.828 0 9.1-3.173 9.1v3.197c3.173 0 6.345-2.09 6.345-12.297h4.515v11.928Zm13.668-2.583c-2.44 0-4.515-2.09-4.515-4.795 0-2.583 2.074-4.673 4.515-4.673 2.562 0 4.515 2.09 4.515 4.673 0 2.705-1.953 4.795-4.515 4.795ZM55.157.108c-5.125-.861-9.396 3.566-8.664 8.73.488 3.075 3.05 5.534 6.101 6.149 5.126.738 9.397-3.566 8.664-8.73-.61-3.075-3.05-5.657-6.101-6.15ZM3.417 37.982c-.854 0-1.587-.246-2.075-.86-.61-.493-.854-1.23-.854-2.091 0-.984.244-1.599.854-2.214.488-.615 1.22-.86 2.075-.86.976 0 1.708.368 2.196.983l-.854.86c-.244-.49-.732-.737-1.342-.737-.488 0-.854.123-1.22.492-.245.369-.489.86-.489 1.476 0 .492.244.983.488 1.352.367.37.733.492 1.22.492.61 0 1.099-.246 1.343-.615l.854.738c-.488.615-1.22.984-2.196.984Zm5.979-1.107c.488 0 .976-.123 1.22-.492.245-.369.489-.86.489-1.352 0-.615-.244-1.107-.489-1.476-.244-.369-.732-.492-1.22-.492s-.854.123-1.22.492c-.244.369-.366.86-.366 1.476 0 .492.122.983.366 1.352.366.37.732.492 1.22.492Zm0 1.107c-.854 0-1.586-.246-2.074-.86a2.892 2.892 0 0 1-.854-2.091c0-.861.244-1.599.854-2.214.488-.615 1.22-.86 2.074-.86.854 0 1.587.245 2.197.86.488.615.732 1.353.732 2.214 0 .86-.244 1.475-.732 2.09-.61.615-1.343.86-2.197.86Zm10.251-1.107c.366 0 .732-.123.854-.492.244-.369.366-.86.366-1.352 0-.615-.122-1.107-.366-1.476-.122-.369-.488-.492-.854-.492a.928.928 0 0 0-.61.246c-.245.123-.489.369-.61.492v2.336c.121.246.365.37.61.492.122.246.366.246.61.246Zm-3.54-3.812c-.365 0-.731.123-.975.492-.245.369-.367.86-.367 1.476 0 .491.122.983.367 1.352.244.37.61.492.976.492.244 0 .366 0 .61-.246a.956.956 0 0 0 .488-.492v-2.336c-.122-.123-.244-.369-.488-.492s-.366-.246-.61-.246Zm-1.952-.246c.366-.615.854-.86 1.587-.86.61 0 1.098.245 1.464.983v-3.074h1.22v3.074c.488-.738.977-.984 1.587-.984s1.22.246 1.586.861c.366.492.61 1.23.61 2.214a4.27 4.27 0 0 1-.61 2.213c-.366.492-.976.738-1.586.738-.61 0-1.099-.246-1.587-.861v2.951h-1.22v-2.951c-.366.615-.854.86-1.464.86-.733 0-1.22-.245-1.587-.737a4.27 4.27 0 0 1-.61-2.213c0-.984.244-1.722.61-2.214Zm11.837 5.042h-1.22v-4.673h-1.586V32.08H27.7v1.107h-1.709v4.673Z"/>
  <defs>
    <linearGradient id="a" x1="77" x2="0" y1="22.6" y2="22.6" gradientUnits="userSpaceOnUse">
      <stop stop-color="#FFFF72"/>
      <stop offset=".344" stop-color="#F7D000"/>
      <stop offset="1" stop-color="#BB2649"/>
    </linearGradient>
  </defs>
</svg>
